<svg width="24" height="24" viewBox="0 0 24 24" fill="none" xmlns="http://www.w3.org/2000/svg"><g id="target, arrow, goal, aim "><path id="Icon" d="M21 12C21 16.9706 16.9706 21 12 21C7.02944 21 3 16.9706 3 12C3 7.02945 7.02944 3.00001 12 3.00001M16.7712 13.4994C16.1341 15.5281 14.2389 16.9996 12 16.9996C9.23858 16.9996 7 14.761 7 11.9996C7 9.7608 8.47145 7.86566 10.5 7.22853M14 10H17.5858C17.851 10 18.1054 9.89465 18.2929 9.70712L21.214 6.78604C21.3454 6.65463 21.2926 6.43086 21.1162 6.37209L18.5 5.50001L17.6279 2.88376C17.5691 2.70745 17.3454 2.65463 17.214 2.78604L14.2929 5.70712C14.1054 5.89465 14 6.14901 14 6.41422V10ZM14 10L12 12" stroke="#1972F5" stroke-width="2" stroke-linecap="round" stroke-linejoin="round"/></g></svg>