<svg width="24" height="24" viewBox="0 0 24 24" fill="none" xmlns="http://www.w3.org/2000/svg"><g id="bubble notification, badge, message"><path id="Icon" d="M20.0022 18.0358L20.0022 19.0358H20.0022L20.0022 18.0358ZM15.3759 18.0358L15.3759 19.0358H15.3759L15.3759 18.0358ZM14.738 18.2657L15.3759 19.0358H15.3759L14.738 18.2657ZM11.9979 20.5358L11.3555 21.3021C11.7255 21.6123 12.2642 21.6138 12.6359 21.3058L11.9979 20.5358ZM9.29422 18.2694L8.65182 19.0358H8.65182L9.29422 18.2694ZM4.0022 4.00003L4.0022 5.00003L4.0022 4.00003ZM12.0022 5.00001C12.5545 5.00001 13.0022 4.5523 13.0022 4.00001C13.0022 3.44773 12.5545 3.00001 12.0022 3.00001L12.0022 5.00001ZM22.0022 13.0179C22.0022 12.4656 21.5545 12.0179 21.0022 12.0179C20.4499 12.0179 20.0022 12.4656 20.0022 13.0179H22.0022ZM4.0022 17.0358V5.00003H2.0022V17.0358H4.0022ZM20.0022 17.0358L15.3759 17.0358L15.3759 19.0358L20.0022 19.0358L20.0022 17.0358ZM14.1 17.4957L11.3599 19.7657L12.6359 21.3058L15.3759 19.0358L14.1 17.4957ZM12.6403 19.7694L9.93662 17.503L8.65182 19.0358L11.3555 21.3021L12.6403 19.7694ZM8.65182 17.0358H4.0022V19.0358H8.65182V17.0358ZM4.0022 5.00003L12.0022 5.00001L12.0022 3.00001L4.00219 3.00003L4.0022 5.00003ZM20.0022 13.0179V17.0358H22.0022V13.0179H20.0022ZM15.3759 17.0358C14.91 17.0358 14.4587 17.1984 14.1 17.4957L15.3759 19.0358H15.3759L15.3759 17.0358ZM2.0022 17.0358C2.0022 18.1403 2.89763 19.0358 4.0022 19.0358V17.0358H4.0022H2.0022ZM20.0022 19.0358C21.1068 19.0357 22.0022 18.1403 22.0022 17.0358H20.0022L20.0022 17.0358L20.0022 19.0358ZM9.93662 17.503C9.57654 17.2012 9.12168 17.0358 8.65182 17.0358V19.0358H8.65182L9.93662 17.503ZM4.0022 5.00003V5.00003L4.00219 3.00003C2.89763 3.00003 2.0022 3.89546 2.0022 5.00003H4.0022ZM21 6C21 7.10457 20.1046 8 19 8V10C21.2091 10 23 8.20914 23 6H21ZM19 8C17.8954 8 17 7.10457 17 6H15C15 8.20914 16.7909 10 19 10V8ZM17 6C17 4.89543 17.8954 4 19 4V2C16.7909 2 15 3.79086 15 6H17ZM19 4C20.1046 4 21 4.89543 21 6H23C23 3.79086 21.2091 2 19 2V4Z" fill="#1972F5"/></g></svg>