<svg xmlns="http://www.w3.org/2000/svg" width="24" height="24" viewBox="0 0 24 24" fill="none" stroke="currentColor" stroke-width="2" stroke-linecap="round" stroke-linejoin="round" class="h-4 w-4 text-neutral-500"><path d="M18.998 3.003h-5a1 1 0 0 0 -1 1v16a1 1 0 0 0 1 1h5a2 2 0 0 0 2 -2v-14a2 2 0 0 0 -2 -2z" fill="currentColor" stroke-width="0"></path><path d="M9.008 19.003a1 1 0 0 1 .117 1.993l-.127 .007a1 1 0 0 1 -.117 -1.993l.127 -.007z" fill="currentColor" stroke-width="0"></path><path d="M4.008 19.003a1 1 0 0 1 .117 1.993l-.128 .007a1 1 0 0 1 -.117 -1.993l.128 -.007z" fill="currentColor" stroke-width="0"></path><path d="M4.008 14.002a1 1 0 0 1 .117 1.993l-.128 .007a1 1 0 0 1 -.117 -1.993l.128 -.007z" fill="currentColor" stroke-width="0"></path><path d="M4.008 8.002a1 1 0 0 1 .117 1.993l-.128 .007a1 1 0 0 1 -.117 -1.993l.128 -.007z" fill="currentColor" stroke-width="0"></path><path d="M4.008 3.002a1 1 0 0 1 .117 1.993l-.128 .007a1 1 0 0 1 -.117 -1.993l.128 -.007z" fill="currentColor" stroke-width="0"></path><path d="M9.008 3.002a1 1 0 0 1 .117 1.993l-.127 .007a1 1 0 0 1 -.117 -1.993l.127 -.007z" fill="currentColor" stroke-width="0"></path></svg>
