<svg xmlns="http://www.w3.org/2000/svg" fill="none" viewBox="0 0 50 37" class="nuxt-icon common-icon common-card-testimonial-quote__icon" height="37" width="50"><path fill="#eaecf5" d="M22.799 28.058c0 2.57-.944 4.728-2.83 6.475C18.187 36.178 15.67 37 12.42 37c-3.878 0-6.918-1.542-9.12-4.625C1.102 29.189 0 25.489 0 21.275 0 14.697 1.94 9.558 5.818 5.858 9.8 2.158 15.252.206 22.17 0v7.246c-3.355.103-6.027.822-8.02 2.158-1.886 1.233-3.248 2.827-4.087 4.78-.734 1.85-1.1 3.648-1.1 5.395v1.08c0 .308.052.616.157.924.628-.616 1.415-1.079 2.358-1.387 1.048-.309 2.044-.463 2.987-.463 2.306 0 4.246.72 5.818 2.159 1.677 1.336 2.516 3.391 2.516 6.166Zm27.201 0c0 2.57-.943 4.728-2.83 6.475C45.388 36.178 42.872 37 39.623 37c-3.879 0-6.919-1.542-9.12-4.625-2.201-3.186-3.302-6.886-3.302-11.1 0-6.578 1.94-11.717 5.818-15.417C37.002 2.158 42.453.206 49.37 0v7.246c-3.354.103-6.027.822-8.019 2.158-1.887 1.233-3.25 2.827-4.088 4.78-.734 1.85-1.1 3.648-1.1 5.395v1.08c0 .308.052.616.157.924.629-.616 1.415-1.079 2.358-1.387 1.048-.309 2.044-.463 2.988-.463 2.306 0 4.245.72 5.817 2.159C49.161 23.228 50 25.283 50 28.058Z"/></svg>