<svg xmlns="http://www.w3.org/2000/svg" viewBox="0 0 29 32" class="nuxt-icon nuxt-icon--fill page-footer__status-bot"><path d="M10.154.046c-5.412.647-7.78 1.32-8.508 2.397-1.238 1.911 2.585 3.392 9.746 3.823 2.989.161 3.07.188 3.07.807v.62h-5.52c-5.492 0-5.519 0-5.626.592-.081.35-.566 5.088-1.104 10.58-.539 5.466-1.023 10.474-1.104 11.12l-.162 1.13h13.758c7.565 0 13.758-.08 13.758-.215.027-.107-.485-5.357-1.131-11.711L26.173 7.693H15.808V7.02c0-.647.08-.674 1.48-.674.835 0 2.666-.134 4.12-.296 4.415-.484 7.134-1.373 7.484-2.45.7-2.234-3.365-3.419-12.276-3.58-3.043-.054-5.95-.027-6.462.026zm12.52 1.75c2.422.35 4.71.997 4.71 1.32 0 .592-4.36 1.427-9.072 1.75l-2.477.161-.081-1.023c-.054-.808-.188-1.05-.673-1.104-.512-.08-.592.054-.673.943l-.08 1.023-2.29-.081c-4.172-.135-8.884-1.023-8.884-1.67 0-.565 4.362-1.426 8.615-1.722 2.181-.135 8.723.107 10.904.403zm2.153 7.566c.135.377 2.02 18.9 2.02 19.815v.593H14.73c-6.65 0-12.115-.081-12.115-.216-.027-.511 1.938-19.896 2.019-20.192.161-.485 20.03-.485 20.192 0z"/><path d="M12.443 11.354c-1.346.484-3.016 2.073-3.662 3.473-.323.673-.511 1.696-.511 2.692 0 6.22 7.215 9.073 11.361 4.496 3.123-3.446 1.696-9.154-2.665-10.715-1.32-.458-3.177-.431-4.523.054zm3.688 1.184c4.442 1.239 5.035 7.673.889 9.692-3.285 1.589-6.947-.457-7.324-4.092-.269-2.584 1.239-4.846 3.689-5.546 1.265-.377 1.588-.377 2.746-.054z"/><path d="M10.8 25.596c-.215.538.054.888 1.292 1.508.916.457 1.481.538 3.204.457 2.289-.08 3.527-.7 3.689-1.803.107-.727-.323-.727-1.696-.027-1.347.7-3.231.7-4.577 0-1.266-.647-1.723-.673-1.912-.135z"/></svg>