<svg xmlns="http://www.w3.org/2000/svg" fill="none" viewBox="0 0 32 33" class="nuxt-icon common-icon page-header-dropdown__icon" height="18" width="18"><path stroke="currentColor" stroke-linecap="round" stroke-linejoin="round" stroke-width="2" d="m7.66 6.844 3.164-1.977A2.667 2.667 0 0 1 13.08 4.6l2.076.692c.548.182 1.14.182 1.687 0l2.076-.692a2.667 2.667 0 0 1 2.257.268l3.163 1.977a2.666 2.666 0 0 1 1.253 2.262v.614c0 .84.396 1.63 1.067 2.133l.608.456a2.667 2.667 0 0 1 1.066 2.133v2.815c0 .84-.395 1.63-1.066 2.133l-.608.456a2.667 2.667 0 0 0-1.067 2.133v1.985c0 .92-.473 1.774-1.253 2.262l-3.163 1.977a2.667 2.667 0 0 1-2.257.268l-2.076-.692a2.667 2.667 0 0 0-1.687 0l-2.076.692a2.667 2.667 0 0 1-2.256-.268L7.66 26.226a2.667 2.667 0 0 1-1.254-2.262V21.98c0-.839-.395-1.63-1.066-2.133l-.608-.456a2.667 2.667 0 0 1-1.066-2.133v-2.815c0-.839.395-1.63 1.066-2.133l.608-.456A2.667 2.667 0 0 0 6.407 9.72v-.614c0-.92.474-1.775 1.254-2.262Z"/><path stroke="currentColor" stroke-linecap="round" stroke-linejoin="round" stroke-width="2" d="M16 5.868v4.229c0 .707.28 1.385.781 1.886L20 15.2m-4 12v-4.228c0-.707-.28-1.386-.781-1.886L12 17.868"/><path stroke="currentColor" stroke-linecap="round" stroke-linejoin="round" stroke-width="2" d="M12 19.202a1.333 1.333 0 1 0 0-2.667 1.333 1.333 0 0 0 0 2.667ZM20 16.535a1.333 1.333 0 1 0 0-2.667 1.333 1.333 0 0 0 0 2.667Z"/></svg>