<svg xmlns="http://www.w3.org/2000/svg" viewBox="0 0 24 24" class="nuxt-icon common-icon page-header-dropdown__icon" height="18" width="18"><g style="stroke:currentColor;stroke-width:2;fill:none;fill-rule:evenodd;stroke-linecap:round;stroke-linejoin:round;"><path d="M12 21a9 9 0 1 0 0-18 9 9 0 0 0 0 18z"/><path d="M9.75 9.269c0-.43 0-.645.09-.764a.45.45 0 0 1 .328-.18c.15-.01.33.106.691.338l4.249 2.731c.313.202.47.303.524.43a.45.45 0 0 1 0 .351c-.054.128-.21.23-.524.43l-4.249 2.732c-.361.232-.542.348-.691.338a.45.45 0 0 1-.328-.18c-.09-.12-.09-.334-.09-.764z"/></g></svg>