<svg xmlns="http://www.w3.org/2000/svg" fill="none" viewBox="0 0 32 32" class="nuxt-icon common-icon page-header-dropdown__icon" height="18" width="18"><path stroke="currentColor" stroke-linecap="square" stroke-linejoin="round" stroke-width="2" d="M9 25.667V9c0-.736-.597-1.333-1.333-1.333H5c-.737 0-1.333.597-1.333 1.333v16.667C3.667 26.403 4.263 27 5 27h2.667C8.402 27 9 26.403 9 25.667Zm0 0V6.333C9 5.597 9.597 5 10.333 5h6c.737 0 1.334.597 1.334 1.333v19.334c0 .736-.597 1.333-1.334 1.333h-6A1.333 1.333 0 0 1 9 25.667ZM9 10.5h8.666M9 21.5h8.666m6.947 5.542 3.22-.863a1.333 1.333 0 0 0 .943-1.633L24.807 9.735a1.333 1.333 0 0 0-1.633-.943l-3.22.863a1.333 1.333 0 0 0-.942 1.633l3.968 14.81c.19.712.922 1.134 1.633.944Z"/></svg>